<?xml version="1.0" encoding="UTF-8"?>
<svg id="Layer_1" xmlns="http://www.w3.org/2000/svg" version="1.1" viewBox="0 0 769.7 243.41">
  <!-- Generator: Adobe Illustrator 30.2.1, SVG Export Plug-In . SVG Version: 2.1.1 Build 1)  -->
  <defs>
    <style>
      .st0 {
        fill: #231f20;
      }

      .st1 {
        fill: #5bc6d0;
      }

      .st2 {
        fill: #ea2928;
      }
    </style>
  </defs>
  <g>
    <path class="st0" d="M98.12,14.97h52.1v127.1h.53l36.31-57.63h57.89l-43.68,63.42,44.47,68.15h-58.94l-36.05-61.31h-.53v61.31h-52.1V14.97Z"/>
    <path class="st0" d="M245.48,150.22c0-38.68,31.31-68.68,74.73-68.68s74.73,30,74.73,68.68-31.31,68.68-74.73,68.68-74.73-30-74.73-68.68ZM343.37,150.22c0-14.21-9.74-25.26-23.16-25.26s-23.16,11.05-23.16,25.26,9.74,25.26,23.16,25.26,23.16-11.05,23.16-25.26Z"/>
    <path class="st0" d="M404.15,84.44h20v-30l51.84-12.37v42.37h31.31v41.05h-31.31v33.95c0,11.31,5,17.63,15.79,17.63,5.79,0,11.58-1.58,15.53-3.16v38.68c-7.37,3.42-19.74,6.32-32.37,6.32-34.47,0-50.79-18.68-50.79-53.68v-39.73h-20v-41.05Z"/>
    <path class="st0" d="M519.93,150.22c0-38.68,31.31-68.68,74.73-68.68s74.73,30,74.73,68.68-31.31,68.68-74.73,68.68-74.73-30-74.73-68.68ZM617.82,150.22c0-14.21-9.74-25.26-23.16-25.26s-23.16,11.05-23.16,25.26,9.74,25.26,23.16,25.26,23.16-11.05,23.16-25.26Z"/>
  </g>
  <circle class="st1" cx="709.36" cy="145.47" r="28.96"/>
  <circle class="st2" cx="60.03" cy="145.47" r="28.65"/>
</svg>