<?xml version="1.0" encoding="UTF-8"?>
<svg id="Layer_1" xmlns="http://www.w3.org/2000/svg" version="1.1" viewBox="0 0 364.51 126.83">
  <!-- Generator: Adobe Illustrator 30.1.0, SVG Export Plug-In . SVG Version: 2.1.1 Build 136)  -->
  <defs>
    <style>
      .st0, .st1 {
        fill: #59c6d0;
      }

      .st2, .st3 {
        fill: #231f20;
      }

      .st4 {
        fill: #fff;
        font-size: 317.32px;
      }

      .st4, .st3 {
        font-family: AgletSans-Ultra, 'Aglet Sans';
      }

      .st5 {
        font-family: LeagueSpartan-ExtraBold, 'League Spartan';
        font-size: 188.83px;
        font-variation-settings: ';
        font-weight: 700;
      }

      .st5, .st6 {
        fill: #ec2426;
      }

      .st1 {
        font-family: GambadoSansForte, 'Gambado Sans';
        font-size: 108.07px;
      }

      .st7 {
        fill: #ed2024;
      }

      .st3 {
        font-size: 53.42px;
      }
    </style>
  </defs>
  <circle class="st2" cx="660.52" cy="591.52" r="189.17"/>
  <text transform="translate(494.73 628.12)"><tspan><tspan class="st5" x="0" y="0">mm</tspan><tspan class="st1" x="314.03" y="0">.</tspan></tspan></text>
  <circle class="st6" cx="-662.29" cy="-182.72" r="76.9"/>
  <circle class="st0" cx="-498.27" cy="-182.72" r="76.9"/>
  <circle class="st0" cx="128.7" cy="402.35" r="76.9"/>
  <circle class="st0" cx="-61.33" cy="286.69" r="10.43"/>
  <circle class="st2" cx="-323.66" cy="286.69" r="14.58"/>
  <rect class="st2" x="875.01" y="-320.09" width="273.43" height="273.43"/>
  <text class="st4" transform="translate(926.15 -76.73)"><tspan x="0" y="0">K</tspan></text>
  <text class="st4" transform="translate(1148.44 -76.73)"><tspan x="0" y="0">OTO</tspan></text>
  <rect class="st2" x="-208.77" y="-205.7" width="135.2" height="135.2"/>
  <g>
    <path class="st2" d="M18.03,103.37V15.96c0-4.68,2.78-7.46,7.46-7.46h21.49c4.68,0,7.46,2.78,7.46,7.46v87.42c0,4.68-2.78,7.46-7.46,7.46h-21.49c-4.68,0-7.46-2.78-7.46-7.46ZM75.48,102.06l-12.42-25.14c-3.22-6.43-4.82-11.69-4.82-18.13,0-5.99,1.61-11.84,4.82-17.98l13.89-26.75c2.05-3.8,5.26-5.55,10.09-5.55h15.5c5.85,0,8.33,3.22,8.33,7.75,0,2.63-1.02,5.7-3.36,9.65l-16.23,28.5,17.54,32.01c5.26,9.5,1.75,19.88-8.48,24.7-9.21,4.39-20.03.73-24.85-9.06Z"/>
    <path class="st2" d="M116.27,82.18v-18.56c0-20.32,17.1-30.99,41.95-30.99s41.95,10.67,41.95,30.99v18.56c0,20.47-16.96,30.84-41.95,30.84s-41.95-10.38-41.95-30.84ZM164.36,84.37v-22.95c0-3.51-1.75-5.41-6.14-5.41s-6.14,1.9-6.14,5.41v22.95c0,3.36,1.75,5.26,6.14,5.26s6.14-1.9,6.14-5.26Z"/>
    <path class="st2" d="M211.44,87.15v-28.8h-3.8c-2.19,0-3.8-1.61-3.8-3.65v-16.23c0-2.05,1.61-3.65,3.8-3.65h3.8v-6.58c0-7.46,4.24-11.69,11.26-11.69h12.57c7.02,0,11.26,4.24,11.26,11.69v6.58h6.14c2.19,0,3.95,1.75,3.95,3.8v15.93c0,2.05-1.75,3.8-3.95,3.8h-5.56v25.14c0,1.61.73,2.34,2.63,2.34h2.92c2.34,0,3.95,1.61,3.95,3.8v16.52c0,2.92-1.46,4.68-4.24,4.68h-15.35c-18.86,0-25.58-8.33-25.58-23.68Z"/>
    <path class="st2" d="M261.72,82.18v-18.56c0-20.32,17.1-30.99,41.95-30.99s41.95,10.67,41.95,30.99v18.56c0,20.47-16.96,30.84-41.95,30.84s-41.95-10.38-41.95-30.84ZM309.82,84.37v-22.95c0-3.51-1.75-5.41-6.14-5.41s-6.14,1.9-6.14,5.41v22.95c0,3.36,1.75,5.26,6.14,5.26s6.14-1.9,6.14-5.26Z"/>
  </g>
  <text class="st3" transform="translate(146.89 -236.54)"><tspan x="0" y="0">aglet sans</tspan></text>
  <path class="st7" d="M-191.19-92.33v-93.82c0-5.02,2.98-8,8-8h23.06c5.02,0,8,2.98,8,8v93.82c0,5.02-2.98,8-8,8h-23.06c-5.02,0-8-2.98-8-8ZM-129.53-93.75l-13.33-26.99c-3.45-6.9-5.18-12.55-5.18-19.45,0-6.43,1.73-12.71,5.18-19.3l14.9-28.71c2.2-4.08,5.65-5.96,10.83-5.96h16.63c6.28,0,8.94,3.45,8.94,8.32,0,2.82-1.1,6.12-3.61,10.35l-17.42,30.59,18.83,34.36c5.65,10.2,1.88,21.34-9.1,26.51-9.88,4.71-21.49.78-26.67-9.73Z"/>
</svg>