<?xml version="1.0" encoding="UTF-8"?>
<svg id="Layer_1" xmlns="http://www.w3.org/2000/svg" version="1.1" viewBox="0 0 579.36 126.83">
  <!-- Generator: Adobe Illustrator 30.2.1, SVG Export Plug-In . SVG Version: 2.1.1 Build 1)  -->
  <defs>
    <style>
      .st0 {
        fill: #59c6d0;
      }

      .st1, .st2 {
        fill: #231f20;
      }

      .st3 {
        fill: #ea2729;
      }

      .st4 {
        fill: #ec2426;
      }

      .st5 {
        fill: #ed2024;
      }

      .st6 {
        fill: #5bc6d0;
      }

      .st7 {
        font-family: GambadoSansForte, 'Gambado Sans';
        font-size: 36.37px;
      }

      .st2 {
        letter-spacing: 0em;
      }
    </style>
  </defs>
  <circle class="st0" cx="726.12" cy="-102.2" r="5.19"/>
  <circle class="st1" cx="875.37" cy="591.52" r="189.17"/>
  <g>
    <path class="st4" d="M828.55,548.34c5.92,0,11.19,1.2,15.81,3.59,4.63,2.39,8.28,6.09,10.95,11.09,2.67,5,4.01,11.47,4.01,19.4v45.7h-32.86v-40.98c0-4.28-.68-7.9-2.03-10.86-1.35-2.96-4.2-4.44-8.54-4.44-2.77,0-5.1.69-6.99,2.08-1.89,1.39-3.29,3.23-4.2,5.52-.91,2.3-1.37,4.86-1.37,7.7v40.98h-30.59v-40.98c0-4.28-.68-7.9-2.03-10.86-1.35-2.96-4.17-4.44-8.45-4.44-2.77,0-5.1.68-6.99,2.03-1.89,1.35-3.3,3.18-4.25,5.48-.94,2.3-1.42,4.89-1.42,7.79v40.98h-33.14v-77.52h33.14v10.76c.76-1.95,2.47-3.93,5.15-5.95,2.67-2.01,5.92-3.7,9.73-5.05,3.81-1.35,7.79-2.03,11.94-2.03,4.59,0,8.42.57,11.47,1.7,3.05,1.13,5.6,2.74,7.65,4.82,2.04,2.08,3.76,4.47,5.15,7.17.88-2.08,2.64-4.17,5.29-6.28,2.64-2.11,5.95-3.87,9.91-5.29,3.97-1.42,8.18-2.12,12.65-2.12Z"/>
    <path class="st4" d="M985.56,548.34c5.92,0,11.19,1.2,15.81,3.59,4.63,2.39,8.28,6.09,10.95,11.09,2.67,5,4.01,11.47,4.01,19.4v45.7h-32.86v-40.98c0-4.28-.68-7.9-2.03-10.86-1.35-2.96-4.2-4.44-8.54-4.44-2.77,0-5.1.69-6.99,2.08-1.89,1.39-3.29,3.23-4.2,5.52-.91,2.3-1.37,4.86-1.37,7.7v40.98h-30.59v-40.98c0-4.28-.68-7.9-2.03-10.86-1.35-2.96-4.17-4.44-8.45-4.44-2.77,0-5.1.68-6.99,2.03-1.89,1.35-3.3,3.18-4.25,5.48-.94,2.3-1.42,4.89-1.42,7.79v40.98h-33.14v-77.52h33.14v10.76c.76-1.95,2.47-3.93,5.15-5.95,2.67-2.01,5.92-3.7,9.73-5.05,3.81-1.35,7.79-2.03,11.94-2.03,4.59,0,8.42.57,11.47,1.7,3.05,1.13,5.6,2.74,7.65,4.82,2.04,2.08,3.76,4.47,5.15,7.17.88-2.08,2.64-4.17,5.29-6.28,2.64-2.11,5.95-3.87,9.91-5.29,3.97-1.42,8.18-2.12,12.65-2.12Z"/>
    <path class="st0" d="M1039.28,609.53c6.38,0,11.35,5.19,11.35,11.56s-4.97,11.56-11.35,11.56-11.35-5.19-11.35-11.56,4.97-11.56,11.35-11.56Z"/>
  </g>
  <text class="st7" transform="translate(603.63 -156.89)"><tspan class="st1" x="0" y="0">I</tspan><tspan class="st0" x="11.24" y="0">HATE</tspan><tspan class="st5" x="112.03" y="0">ADAM.</tspan><tspan class="st2" x="240.43" y="0">COM</tspan></text>
  <circle class="st0" cx="796.26" cy="-105.9" r="5.19"/>
  <circle class="st0" cx="870.19" cy="-102.2" r="5.19"/>
  <g>
    <path class="st1" d="M90.98-134.24c3.18,0,6.02.64,8.51,1.93,2.49,1.29,4.45,3.28,5.89,5.97,1.44,2.69,2.16,6.18,2.16,10.45v24.6h-17.67v-22.06c0-2.3-.36-4.25-1.09-5.85-.73-1.59-2.26-2.39-4.6-2.39-1.49,0-2.74.37-3.76,1.12-1.02.75-1.77,1.74-2.26,2.97-.49,1.24-.74,2.62-.74,4.14v22.06h-16.45v-22.06c0-2.3-.36-4.25-1.09-5.85-.73-1.59-2.24-2.39-4.54-2.39-1.49,0-2.74.36-3.76,1.09-1.02.73-1.78,1.71-2.29,2.95-.51,1.24-.76,2.64-.76,4.19v22.06h-17.83v-41.73h17.83v5.79c.41-1.05,1.33-2.12,2.77-3.2,1.44-1.08,3.18-1.99,5.23-2.72,2.05-.73,4.19-1.09,6.42-1.09,2.47,0,4.53.31,6.17.92,1.64.61,3.01,1.47,4.11,2.59,1.1,1.12,2.02,2.41,2.77,3.86.47-1.12,1.42-2.24,2.84-3.38,1.42-1.13,3.2-2.08,5.33-2.85,2.13-.76,4.4-1.14,6.81-1.14Z"/>
    <path class="st1" d="M147.19-91.28v-6.25c-.34.64-1.1,1.57-2.29,2.77-1.18,1.2-2.75,2.29-4.7,3.25-1.95.97-4.22,1.45-6.83,1.45-4.13,0-7.7-1.02-10.71-3.05-3.01-2.03-5.34-4.73-6.98-8.08-1.64-3.35-2.46-7-2.46-10.93s.82-7.57,2.46-10.93c1.64-3.35,3.97-6.06,6.98-8.11,3.01-2.05,6.58-3.08,10.71-3.08,2.47,0,4.63.37,6.47,1.12,1.84.75,3.37,1.63,4.57,2.64s2.06,1.98,2.57,2.9v-5.44h17.88v41.73h-17.67ZM130.84-112.12c0,1.49.36,2.85,1.07,4.09.71,1.24,1.68,2.21,2.89,2.92,1.22.71,2.61,1.07,4.16,1.07s2.94-.36,4.14-1.07c1.2-.71,2.15-1.69,2.84-2.92.69-1.24,1.04-2.6,1.04-4.09s-.35-2.85-1.04-4.09c-.69-1.24-1.64-2.22-2.84-2.95-1.2-.73-2.58-1.09-4.14-1.09s-2.95.36-4.16,1.09c-1.22.73-2.18,1.71-2.89,2.95-.71,1.24-1.07,2.6-1.07,4.09Z"/>
    <path class="st1" d="M190.1-91.28h-17.98v-41.73h17.98v6.15h-.25c.34-.75,1.02-1.69,2.06-2.85,1.03-1.15,2.49-2.19,4.37-3.13,1.88-.93,4.22-1.4,7.03-1.4,1.9,0,3.69.31,5.38.92,1.69.61,2.93,1.2,3.71,1.78l-6.91,14.59c-.44-.64-1.27-1.3-2.49-1.96-1.22-.66-2.73-.99-4.52-.99-2.03,0-3.67.45-4.9,1.35-1.24.9-2.12,2.01-2.67,3.33-.54,1.32-.81,2.59-.81,3.81v20.13Z"/>
    <path class="st1" d="M245.61-133.02h20.06l-18.99,19.93,21.23,21.81h-20.57l-14.83-16.11v16.11h-17.98v-69.94h17.98v41.94l13.1-13.72Z"/>
    <path class="st1" d="M284.15-108.52c.13,1.12.58,2.09,1.35,2.92.76.83,1.78,1.47,3.05,1.93s2.75.69,4.44.69,3.33-.13,4.82-.38c1.49-.25,2.82-.61,3.99-1.07s2.11-.94,2.82-1.45l6.6,11.23c-.71.61-1.82,1.27-3.33,1.98-1.51.71-3.56,1.32-6.15,1.83s-5.9.76-9.93.76c-4.67,0-8.87-.83-12.59-2.49-3.72-1.66-6.66-4.16-8.81-7.5-2.15-3.34-3.22-7.51-3.22-12.53,0-4.07.91-7.73,2.72-11,1.81-3.27,4.44-5.86,7.9-7.78,3.45-1.91,7.63-2.87,12.54-2.87s8.79.82,12.24,2.47c3.45,1.64,6.11,4.13,7.97,7.45,1.86,3.32,2.79,7.52,2.79,12.61,0,.27,0,.81-.03,1.6-.02.8-.06,1.33-.13,1.6h-29.05ZM296.44-116.65c-.03-1.12-.28-2.12-.74-3-.46-.88-1.1-1.58-1.93-2.08-.83-.51-1.87-.76-3.12-.76-1.19,0-2.23.23-3.15.69s-1.63,1.13-2.16,2.01c-.53.88-.8,1.93-.84,3.15h11.93Z"/>
    <path class="st1" d="M317.11-133.02h6.7v-17.13h17.77v17.13h8.84v14.69h-8.84v8.13c0,1.46.19,2.7.58,3.74.39,1.03,1.23,1.55,2.51,1.55.78,0,1.47-.18,2.08-.53s.98-.6,1.12-.74l5.99,12.71c-.27.2-1.09.58-2.46,1.14s-3.1,1.08-5.18,1.55c-2.08.47-4.39.71-6.93.71-4.5,0-8.21-1.25-11.12-3.74s-4.37-6.33-4.37-11.51v-13.01h-6.7v-14.69Z"/>
    <path class="st1" d="M368.35-139.42c-2.74,0-5.07-.97-6.98-2.9-1.91-1.93-2.87-4.24-2.87-6.91s.96-5,2.87-6.96c1.91-1.96,4.24-2.95,6.98-2.95,1.79,0,3.44.45,4.93,1.35,1.49.9,2.69,2.09,3.61,3.58.91,1.49,1.37,3.15,1.37,4.98,0,2.68-.97,4.98-2.92,6.91-1.95,1.93-4.27,2.9-6.98,2.9ZM359.16-91.28v-41.73h17.93v41.73h-17.93Z"/>
    <path class="st1" d="M417.35-134.24c3.01,0,5.94.59,8.79,1.78,2.84,1.19,5.19,3.08,7.03,5.69,1.84,2.61,2.77,6.02,2.77,10.22v25.26h-18.03v-22.37c0-2.54-.61-4.5-1.83-5.87-1.22-1.37-2.84-2.06-4.88-2.06-1.32,0-2.56.34-3.71,1.02-1.15.68-2.07,1.63-2.77,2.85-.69,1.22-1.04,2.64-1.04,4.27v22.16h-17.98v-41.73h17.98v5.64c.44-1.12,1.3-2.19,2.59-3.23,1.29-1.03,2.89-1.9,4.82-2.59,1.93-.69,4.01-1.04,6.25-1.04Z"/>
    <path class="st1" d="M475.8-91.28v-6.25c-.34.64-1.1,1.57-2.29,2.77-1.19,1.2-2.75,2.29-4.7,3.25-1.95.97-4.22,1.45-6.83,1.45-4.13,0-7.7-1.02-10.72-3.05s-5.34-4.73-6.98-8.08c-1.64-3.35-2.46-7-2.46-10.93s.82-7.57,2.46-10.93c1.64-3.35,3.97-6.06,6.98-8.11,3.01-2.05,6.58-3.08,10.72-3.08,2.47,0,4.63.37,6.47,1.12,1.84.75,3.37,1.63,4.57,2.64,1.2,1.02,2.06,1.98,2.56,2.9v-5.44h17.88v41.73h-17.67ZM466.56-68.92c-2.78,0-5.64-.23-8.58-.69s-5.75-1.3-8.41-2.52c-2.66-1.22-4.93-2.98-6.83-5.29l10.31-10.93c.85.95,1.85,1.84,3,2.67,1.15.83,2.52,1.51,4.11,2.03,1.59.52,3.45.79,5.59.79,1.93,0,3.66-.29,5.18-.86,1.52-.58,2.72-1.48,3.58-2.72.86-1.24,1.29-2.82,1.29-4.75v-.92h17.67v1.93c0,4.68-1.19,8.59-3.58,11.74-2.39,3.15-5.61,5.52-9.67,7.12-4.06,1.59-8.62,2.39-13.66,2.39ZM459.45-112.12c0,1.49.36,2.85,1.07,4.09.71,1.24,1.68,2.21,2.89,2.92,1.22.71,2.61,1.07,4.16,1.07s2.94-.36,4.14-1.07c1.2-.71,2.15-1.69,2.84-2.92.69-1.24,1.04-2.6,1.04-4.09s-.35-2.85-1.04-4.09c-.69-1.24-1.64-2.22-2.84-2.95-1.2-.73-2.58-1.09-4.14-1.09s-2.95.36-4.16,1.09c-1.22.73-2.18,1.71-2.89,2.95-.71,1.24-1.07,2.6-1.07,4.09Z"/>
  </g>
  <g>
    <path class="st1" d="M703.78-112.9c1.6,0,3.03.32,4.28.97,1.25.65,2.24,1.65,2.97,3.01.72,1.36,1.09,3.11,1.09,5.26v12.38h-8.9v-11.1c0-1.16-.18-2.14-.55-2.94-.37-.8-1.14-1.2-2.32-1.2-.75,0-1.38.19-1.89.56-.51.38-.89.87-1.14,1.5-.25.62-.37,1.32-.37,2.08v11.1h-8.29v-11.1c0-1.16-.18-2.14-.55-2.94-.37-.8-1.13-1.2-2.29-1.2-.75,0-1.38.18-1.89.55-.51.37-.89.86-1.15,1.48s-.38,1.33-.38,2.11v11.1h-8.98v-21h8.98v2.92c.2-.53.67-1.07,1.39-1.61s1.6-1,2.63-1.37c1.03-.37,2.11-.55,3.24-.55,1.25,0,2.28.15,3.11.46.83.31,1.52.74,2.07,1.3.55.56,1.02,1.21,1.39,1.94.24-.56.72-1.13,1.43-1.7.72-.57,1.61-1.05,2.69-1.43,1.08-.38,2.22-.58,3.43-.58Z"/>
    <path class="st1" d="M727.1-90.67c-2.35,0-4.44-.47-6.27-1.41-1.82-.94-3.26-2.24-4.3-3.9-1.04-1.66-1.56-3.58-1.56-5.74s.52-4.09,1.56-5.77c1.04-1.68,2.47-3,4.3-3.96,1.83-.96,3.91-1.45,6.27-1.45s4.4.48,6.2,1.45c1.8.96,3.21,2.29,4.22,3.96,1.01,1.68,1.52,3.6,1.52,5.77s-.51,4.08-1.52,5.74c-1.02,1.66-2.42,2.96-4.22,3.9-1.8.94-3.87,1.41-6.2,1.41ZM727.1-98.06c.7,0,1.3-.15,1.82-.45s.9-.73,1.18-1.29c.27-.56.41-1.22.41-1.97s-.14-1.38-.41-1.94c-.27-.56-.67-1-1.18-1.32-.51-.31-1.12-.47-1.82-.47s-1.33.16-1.84.47c-.51.32-.91.75-1.2,1.32-.29.56-.43,1.21-.43,1.94s.14,1.41.43,1.97c.29.56.69.99,1.2,1.29s1.13.45,1.84.45Z"/>
    <path class="st1" d="M773.02-112.9c1.6,0,3.03.32,4.28.97,1.25.65,2.24,1.65,2.97,3.01.72,1.36,1.09,3.11,1.09,5.26v12.38h-8.9v-11.1c0-1.16-.18-2.14-.55-2.94-.37-.8-1.14-1.2-2.32-1.2-.75,0-1.38.19-1.89.56-.51.38-.89.87-1.14,1.5-.25.62-.37,1.32-.37,2.08v11.1h-8.29v-11.1c0-1.16-.18-2.14-.55-2.94-.37-.8-1.13-1.2-2.29-1.2-.75,0-1.38.18-1.89.55-.51.37-.89.86-1.15,1.48s-.38,1.33-.38,2.11v11.1h-8.98v-21h8.98v2.92c.2-.53.67-1.07,1.39-1.61s1.6-1,2.63-1.37c1.03-.37,2.11-.55,3.24-.55,1.25,0,2.28.15,3.11.46.83.31,1.52.74,2.07,1.3.55.56,1.02,1.21,1.39,1.94.24-.56.72-1.13,1.43-1.7.72-.57,1.61-1.05,2.69-1.43,1.08-.38,2.22-.58,3.43-.58Z"/>
    <path class="st1" d="M792.8-99.96c.07.56.29,1.05.68,1.47.38.42.9.74,1.54.97.64.23,1.39.35,2.24.35s1.68-.06,2.43-.19c.75-.13,1.42-.31,2.01-.54.59-.23,1.06-.47,1.42-.73l3.33,5.65c-.36.31-.92.64-1.68,1-.76.36-1.79.67-3.09.92-1.3.26-2.97.38-5,.38-2.35,0-4.47-.42-6.34-1.25s-3.36-2.09-4.44-3.77-1.62-3.78-1.62-6.31c0-2.05.46-3.89,1.37-5.54.91-1.65,2.24-2.95,3.98-3.91,1.74-.96,3.85-1.45,6.32-1.45s4.43.41,6.17,1.24,3.08,2.08,4.02,3.75c.94,1.67,1.41,3.79,1.41,6.34,0,.14,0,.41-.01.81s-.03.67-.06.81h-14.63ZM798.99-104.05c-.02-.56-.14-1.07-.37-1.51-.23-.44-.55-.79-.97-1.05-.42-.26-.94-.38-1.57-.38-.6,0-1.13.11-1.59.35-.46.23-.82.57-1.09,1.01-.26.44-.41.97-.42,1.59h6.01Z"/>
    <path class="st1" d="M826.66-112.9c1.52,0,2.99.3,4.42.9,1.43.6,2.61,1.55,3.54,2.87.93,1.31,1.39,3.03,1.39,5.14v12.71h-9.08v-11.26c0-1.28-.31-2.26-.92-2.95-.61-.69-1.43-1.04-2.46-1.04-.67,0-1.29.17-1.87.51-.58.34-1.04.82-1.39,1.43-.35.61-.52,1.33-.52,2.15v11.15h-9.06v-21h9.06v2.84c.22-.56.66-1.1,1.3-1.62.65-.52,1.46-.95,2.43-1.3.97-.35,2.02-.52,3.15-.52Z"/>
    <path class="st1" d="M838.25-112.29h3.38v-8.62h8.95v8.62h4.45v7.39h-4.45v4.09c0,.73.1,1.36.29,1.88s.62.78,1.27.78c.39,0,.74-.09,1.05-.27.31-.18.49-.3.56-.37l3.02,6.4c-.14.1-.55.29-1.24.58s-1.56.54-2.61.78c-1.05.24-2.21.36-3.49.36-2.27,0-4.14-.63-5.6-1.88-1.47-1.25-2.2-3.19-2.2-5.79v-6.55h-3.38v-7.39Z"/>
    <path class="st1" d="M875.32-91.28v-3.15c-.17.32-.55.79-1.15,1.39-.6.61-1.39,1.15-2.37,1.64-.98.49-2.13.73-3.44.73-2.08,0-3.88-.51-5.4-1.53s-2.69-2.38-3.52-4.07-1.24-3.52-1.24-5.5.41-3.81,1.24-5.5c.83-1.69,2-3.05,3.52-4.08,1.52-1.03,3.32-1.55,5.4-1.55,1.25,0,2.33.19,3.26.56.93.38,1.7.82,2.3,1.33.6.51,1.04,1,1.29,1.46v-2.74h9v21h-8.9ZM867.08-101.77c0,.75.18,1.44.54,2.06.36.62.84,1.11,1.46,1.47.61.36,1.31.54,2.1.54s1.48-.18,2.08-.54c.6-.36,1.08-.85,1.43-1.47s.52-1.31.52-2.06-.17-1.44-.52-2.06-.83-1.12-1.43-1.48c-.61-.37-1.3-.55-2.08-.55s-1.48.18-2.1.55c-.61.37-1.1.86-1.46,1.48-.36.62-.54,1.31-.54,2.06Z"/>
    <path class="st5" d="M892.1-97.54c2.15,0,3.82,1.75,3.82,3.89s-1.67,3.89-3.82,3.89-3.82-1.75-3.82-3.89,1.67-3.89,3.82-3.89Z"/>
  </g>
  <g>
    <path class="st1" d="M140.69,39.12c3.52,0,6.65.71,9.4,2.13,2.75,1.42,4.92,3.62,6.51,6.59,1.59,2.97,2.39,6.82,2.39,11.53v27.16h-19.53v-24.36c0-2.54-.4-4.7-1.21-6.45-.8-1.76-2.5-2.64-5.08-2.64-1.65,0-3.03.41-4.15,1.23-1.12.82-1.96,1.92-2.5,3.28-.54,1.37-.81,2.89-.81,4.57v24.36h-18.18v-24.36c0-2.54-.4-4.7-1.21-6.45-.81-1.76-2.48-2.64-5.02-2.64-1.65,0-3.03.4-4.15,1.21-1.12.8-1.96,1.89-2.53,3.25-.56,1.37-.84,2.91-.84,4.63v24.36h-19.7v-46.08h19.7v6.4c.45-1.16,1.47-2.34,3.06-3.54,1.59-1.2,3.52-2.2,5.78-3,2.26-.8,4.63-1.21,7.1-1.21,2.73,0,5,.34,6.82,1.01,1.81.67,3.33,1.63,4.55,2.86,1.22,1.23,2.24,2.66,3.06,4.27.52-1.23,1.57-2.48,3.14-3.73,1.57-1.25,3.54-2.3,5.89-3.14,2.36-.84,4.86-1.26,7.52-1.26Z"/>
    <path class="st1" d="M191.87,87.89c-5.16,0-9.75-1.03-13.75-3.09s-7.15-4.91-9.43-8.56c-2.28-3.65-3.42-7.85-3.42-12.6s1.14-8.97,3.42-12.66c2.28-3.68,5.42-6.58,9.43-8.7,4-2.11,8.59-3.17,13.75-3.17s9.66,1.06,13.61,3.17c3.95,2.11,7.03,5.01,9.26,8.7,2.23,3.69,3.34,7.9,3.34,12.66s-1.11,8.95-3.34,12.6c-2.23,3.65-5.31,6.5-9.26,8.56-3.95,2.06-8.48,3.09-13.61,3.09ZM191.87,71.67c1.53,0,2.86-.33,3.98-.98,1.12-.65,1.98-1.6,2.58-2.83.6-1.23.9-2.67.9-4.32s-.3-3.03-.9-4.27c-.6-1.23-1.46-2.2-2.58-2.89-1.12-.69-2.45-1.04-3.98-1.04s-2.92.35-4.04,1.04c-1.12.69-2,1.66-2.64,2.89-.64,1.23-.95,2.66-.95,4.27s.32,3.09.95,4.32c.64,1.23,1.51,2.18,2.64,2.83,1.12.66,2.47.98,4.04.98Z"/>
    <path class="st1" d="M292.61,39.12c3.52,0,6.65.71,9.4,2.13,2.75,1.42,4.92,3.62,6.51,6.59,1.59,2.97,2.39,6.82,2.39,11.53v27.16h-19.53v-24.36c0-2.54-.4-4.7-1.21-6.45-.81-1.76-2.5-2.64-5.08-2.64-1.65,0-3.03.41-4.15,1.23-1.12.82-1.96,1.92-2.5,3.28-.54,1.37-.81,2.89-.81,4.57v24.36h-18.18v-24.36c0-2.54-.4-4.7-1.21-6.45-.8-1.76-2.48-2.64-5.02-2.64-1.65,0-3.03.4-4.15,1.21-1.12.8-1.96,1.89-2.53,3.25-.56,1.37-.84,2.91-.84,4.63v24.36h-19.7v-46.08h19.7v6.4c.45-1.16,1.47-2.34,3.06-3.54,1.59-1.2,3.52-2.2,5.78-3,2.26-.8,4.63-1.21,7.1-1.21,2.73,0,5,.34,6.82,1.01,1.81.67,3.33,1.63,4.55,2.86,1.21,1.23,2.24,2.66,3.06,4.27.52-1.23,1.57-2.48,3.14-3.73,1.57-1.25,3.54-2.3,5.89-3.14,2.36-.84,4.86-1.26,7.52-1.26Z"/>
    <path class="st1" d="M336,67.52c.15,1.23.65,2.31,1.49,3.23.84.92,1.96,1.63,3.37,2.13s3.04.76,4.91.76,3.68-.14,5.33-.42c1.65-.28,3.12-.67,4.41-1.18,1.29-.51,2.33-1.04,3.11-1.6l7.3,12.4c-.79.67-2.01,1.4-3.68,2.19-1.67.79-3.93,1.46-6.79,2.02-2.86.56-6.52.84-10.97.84-5.16,0-9.8-.92-13.92-2.75-4.12-1.83-7.36-4.59-9.74-8.28-2.38-3.69-3.56-8.3-3.56-13.83,0-4.49,1-8.54,3-12.15,2-3.61,4.91-6.47,8.73-8.59,3.82-2.11,8.44-3.17,13.86-3.17s9.71.91,13.53,2.72c3.82,1.82,6.75,4.56,8.81,8.22,2.06,3.67,3.09,8.31,3.09,13.92,0,.3,0,.89-.03,1.77-.02.88-.07,1.47-.14,1.77h-32.1ZM349.58,58.54c-.04-1.23-.31-2.34-.81-3.31-.5-.97-1.22-1.74-2.13-2.3-.92-.56-2.07-.84-3.45-.84-1.31,0-2.47.25-3.48.76-1.01.51-1.81,1.24-2.38,2.22-.58.97-.89,2.13-.93,3.48h13.19Z"/>
    <path class="st1" d="M410.3,39.12c3.33,0,6.57.66,9.71,1.96,3.14,1.31,5.73,3.41,7.77,6.29,2.04,2.88,3.06,6.64,3.06,11.28v27.89h-19.92v-24.69c0-2.81-.67-4.97-2.02-6.48-1.35-1.52-3.14-2.27-5.39-2.27-1.46,0-2.83.37-4.1,1.12-1.27.75-2.29,1.8-3.06,3.14-.77,1.35-1.15,2.92-1.15,4.71v24.47h-19.87v-46.08h19.87v6.23c.49-1.23,1.44-2.42,2.86-3.56,1.42-1.14,3.2-2.1,5.33-2.86,2.13-.77,4.43-1.15,6.9-1.15Z"/>
    <path class="st1" d="M435.73,40.47h7.41v-18.91h19.64v18.91h9.77v16.22h-9.77v8.98c0,1.61.21,2.98.65,4.12.43,1.14,1.36,1.71,2.78,1.71.86,0,1.63-.2,2.3-.59.67-.39,1.08-.66,1.24-.81l6.62,14.03c-.3.22-1.21.65-2.72,1.26-1.52.62-3.42,1.19-5.72,1.71-2.3.52-4.85.79-7.66.79-4.98,0-9.07-1.38-12.29-4.13-3.22-2.75-4.83-6.99-4.83-12.71v-14.37h-7.41v-16.22Z"/>
    <path class="st1" d="M517.05,86.54v-6.9c-.37.71-1.22,1.73-2.53,3.06-1.31,1.33-3.04,2.53-5.19,3.59-2.15,1.07-4.67,1.6-7.55,1.6-4.57,0-8.51-1.12-11.84-3.37-3.33-2.24-5.9-5.22-7.72-8.92-1.82-3.7-2.72-7.73-2.72-12.07s.91-8.36,2.72-12.07c1.81-3.7,4.39-6.69,7.72-8.95,3.33-2.26,7.28-3.4,11.84-3.4,2.73,0,5.12.41,7.16,1.23,2.04.82,3.72,1.8,5.05,2.92,1.33,1.12,2.27,2.19,2.83,3.2v-6h19.76v46.08h-19.53ZM498.98,63.53c0,1.65.39,3.15,1.18,4.52.79,1.37,1.85,2.44,3.2,3.23,1.35.79,2.88,1.18,4.6,1.18s3.25-.39,4.57-1.18c1.33-.79,2.38-1.86,3.14-3.23.77-1.37,1.15-2.87,1.15-4.52s-.38-3.15-1.15-4.52c-.77-1.37-1.82-2.45-3.14-3.26-1.33-.8-2.85-1.21-4.57-1.21s-3.25.4-4.6,1.21c-1.35.81-2.41,1.89-3.2,3.26-.79,1.37-1.18,2.87-1.18,4.52Z"/>
  </g>
  <circle class="st4" cx="-447.44" cy="-182.72" r="76.9"/>
  <circle class="st0" cx="-283.41" cy="-182.72" r="76.9"/>
  <g>
    <path class="st6" d="M49.55,95.9l-16.86-9.73-13.95-8.06h0l-2.7-1.56c-4.03-2.33-5.41-7.48-3.09-11.51,2.33-4.03,7.48-5.41,11.51-3.09l11.16,6.44,14.14,8.17,10.67,6.16c.15.63.22,1.26.22,1.89,0,2.91-1.51,5.75-4.22,7.31l-6.89,3.98Z"/>
    <path class="st6" d="M52.29,58.99l-17.35-8.81-17.15-8.71c-4.15-2.11-5.81-7.18-3.7-11.33,2.11-4.15,7.18-5.81,11.33-3.7l26.64,13.53,8.61,4.37c.6,1.11.92,2.31.99,3.51.16,2.91-1.2,5.82-3.82,7.52l-5.55,3.61Z"/>
    <path class="st3" d="M12.72,37.3h0c-2.33-4.03-.95-9.19,3.08-11.51l19.99-11.54c4.03-2.33,9.19-.95,11.51,3.08h0c2.33,4.03.95,9.19-3.08,11.51l-19.99,11.54c-4.03,2.33-9.19.95-11.51-3.08Z"/>
    <path class="st3" d="M11.85,72.39c-1.93-4.24-.05-9.23,4.19-11.16l22.91-10.41,14.89-6.77c1.16-.53,2.38-.77,3.57-.76,3.17.03,6.19,1.87,7.58,4.94.1.22.19.45.27.67.42,1.19.56,2.43.45,3.62-.28,2.9-2.06,5.57-4.9,6.86l-6.03,2.74-14.64,6.65-17.14,7.79c-.2.09-.41.18-.61.25-4.1,1.49-8.72-.4-10.55-4.43Z"/>
    <path class="st3" d="M12.58,111.04c-2.33-4.03-.95-9.18,3.09-11.51l18.31-10.57,15.32-8.84c.57-.33,1.15-.58,1.75-.76,3.67-1.12,7.76.38,9.76,3.85.43.74.73,1.52.91,2.31.15.63.22,1.26.22,1.89,0,2.91-1.51,5.75-4.22,7.31l-6.89,3.98-26.74,15.44c-4.03,2.33-9.19.95-11.51-3.09Z"/>
  </g>
  <circle class="st0" cx="343.55" cy="402.35" r="76.9"/>
  <circle class="st0" cx="153.52" cy="286.69" r="10.43"/>
  <circle class="st1" cx="-108.8" cy="286.69" r="14.58"/>
  <circle class="st3" cx="553.25" cy="77.33" r="9.85"/>
</svg>